# xmcd
#
# Track frame offsets:
#	150
#	20035
#	33535
#	50932
#	66160
#	84907
#	101560
#	118582
#	134335
#	149260
#	164410
#	177532
#	192982
#	205285
#	216235
#
# Disc length: 3132
#
# Revision: 1
# Processed by: cddbd v1.5.1PL0 Copyright (c) Steve Scherf et al.
# Submitted via: VOLTOCDX V1.0.24 
# Normalized: r0:TSWAP
#
DISCID=e90c3a0f
DTITLE=Various Artist - Legends Series CDG - Jimmy Buffett and Jim Croce
DYEAR=2004
DGENRE=Karaoke
TTITLE0=Jimmy Buffett - Margaritaville
TTITLE1=Jimmy Buffett - Why Don't We Get Drunk
TTITLE2=Jimmy Buffett - Volcano
TTITLE3=Jimmy Buffett - Come Monday
TTITLE4=Jimmy Buffett - A Pirate Looks At Forty
TTITLE5=Jimmy Buffett - Son Of A Son Of A Sailor
TTITLE6=Jimmy Buffett - Fins
TTITLE7=Jimmy Buffett - Changes In Lattitude, Changes In Attitudes
TTITLE8=Jim Croce - Bad Bad Leroy Brown
TTITLE9=Jim Croce - Don't Mess Around With Jim
TTITLE10=Jim Croce - I'll Have To Say I Love You In A Song
TTITLE11=Jim Croce - I Got A Name
TTITLE12=Jim Croce - Time In A Bottle
TTITLE13=Jim Croce - Photographs And Memories
TTITLE14=Jim Croce - Operator
EXTD=
EXTT0=
EXTT1=
EXTT2=
EXTT3=
EXTT4=
EXTT5=
EXTT6=
EXTT7=
EXTT8=
EXTT9=
EXTT10=
EXTT11=
EXTT12=
EXTT13=
EXTT14=
PLAYORDER=
